<svg width="17" height="21" viewBox="0 0 17 21" fill="none" xmlns="http://www.w3.org/2000/svg">
<mask id="mask0_2669_998" style="mask-type:luminance" maskUnits="userSpaceOnUse" x="0" y="0" width="17" height="21">
<path fill-rule="evenodd" clip-rule="evenodd" d="M0 0H16.9668V20.3556H0V0Z" fill="white"/>
</mask>
<g mask="url(#mask0_2669_998)">
<path fill-rule="evenodd" clip-rule="evenodd" d="M8.48341 1.49951C7.63541 1.49951 2.28541 3.38351 1.66841 3.89851C1.48641 4.08151 1.47941 4.39951 1.51841 6.52851C1.53641 7.55451 1.56141 8.94851 1.56141 10.8785C1.56141 16.0795 7.28341 18.3885 8.48241 18.8135C9.68041 18.3865 15.4054 16.0645 15.4054 10.8785C15.4054 8.94651 15.4304 7.55151 15.4494 6.52551C15.4874 4.39851 15.4804 4.08051 15.2874 3.88851C14.6824 3.38351 9.33142 1.49951 8.48341 1.49951ZM8.48341 20.3555C8.41041 20.3555 8.33741 20.3455 8.26641 20.3235C7.93141 20.2225 0.0614145 17.7605 0.0614145 10.8785C0.0614145 8.96151 0.0364145 7.57451 0.0184145 6.55651C-0.0275855 4.01351 -0.0375855 3.48351 0.619415 2.82751C1.40441 2.04051 7.34941 -0.000488281 8.48341 -0.000488281C9.61642 -0.000488281 15.5614 2.04051 16.3484 2.82751C17.0044 3.48351 16.9944 4.01351 16.9484 6.55351C16.9304 7.57151 16.9054 8.95851 16.9054 10.8785C16.9054 17.7605 9.03541 20.2225 8.70041 20.3235C8.62941 20.3455 8.55641 20.3555 8.48341 20.3555Z" />
</g>
<path fill-rule="evenodd" clip-rule="evenodd" d="M7.77713 12.5191C7.57813 12.5191 7.38713 12.4401 7.24613 12.2991L5.35413 10.4051C5.06213 10.1121 5.06213 9.63613 5.35513 9.34413C5.64713 9.05113 6.12313 9.05113 6.41613 9.34413L7.77713 10.7071L11.1451 7.33913C11.4381 7.04613 11.9121 7.04613 12.2051 7.33913C12.4981 7.63213 12.4981 8.10713 12.2051 8.40013L8.30713 12.2991C8.16713 12.4401 7.97613 12.5191 7.77713 12.5191Z" />
</svg>
