<svg width="33" height="33" viewBox="0 0 33 33" fill="none" xmlns="http://www.w3.org/2000/svg">
<path d="M19.855 26.1938L21.945 28.2838L26.125 24.1038" stroke="#292D32" stroke-width="1.5" stroke-linecap="round" stroke-linejoin="round"/>
<path d="M16.7201 14.9462C16.5826 14.9325 16.4176 14.9325 16.2663 14.9462C12.9938 14.8362 10.3951 12.155 10.3951 8.855C10.3813 5.48625 13.1176 2.75 16.4863 2.75C19.8551 2.75 22.5913 5.48625 22.5913 8.855C22.5913 12.155 19.9788 14.8362 16.7201 14.9462Z" stroke="#292D32" stroke-width="1.5" stroke-linecap="round" stroke-linejoin="round"/>
<path d="M16.4864 29.9888C13.9839 29.9888 11.4952 29.3563 9.59768 28.0913C6.27018 25.8638 6.27018 22.2338 9.59768 20.0201C13.3789 17.4901 19.5802 17.4901 23.3614 20.0201" stroke="#292D32" stroke-width="1.5" stroke-linecap="round" stroke-linejoin="round"/>
</svg>
