<svg width="20" height="16" viewBox="0 0 20 16" fill="none" xmlns="http://www.w3.org/2000/svg">
<path d="M19.2505 7.90381C19.2505 8.34679 18.9214 8.71288 18.4943 8.77082L18.3755 8.77881L0.875547 8.77881C0.3923 8.77881 0.000547409 8.38706 0.000547409 7.90381C0.000547409 7.46083 0.329727 7.09474 0.756817 7.0368L0.875547 7.02881L18.3755 7.02881C18.8588 7.02881 19.2505 7.42056 19.2505 7.90381Z" />
<path d="M8.55073 14.3121C8.89318 14.6531 8.89437 15.2071 8.5534 15.5496C8.24342 15.8609 7.75738 15.8902 7.41429 15.6367L7.31596 15.5522L0.257631 8.52422C-0.0546122 8.21332 -0.0830164 7.72552 0.17243 7.38243L0.25758 7.28417L7.31591 0.255002C7.65833 -0.0859986 8.21235 -0.0848516 8.55335 0.257564C8.86335 0.568851 8.89058 1.05502 8.63571 1.39704L8.55079 1.495L2.11542 7.90452L8.55073 14.3121Z" />
</svg>
