<svg width="33" height="33" viewBox="0 0 33 33" fill="none" xmlns="http://www.w3.org/2000/svg">
<path d="M20.0062 2.75H12.9937C10.5187 2.75 9.96866 3.98751 9.65241 5.51376L8.5249 10.9037H24.4749L23.3474 5.51376C23.0312 3.98751 22.4812 2.75 20.0062 2.75Z" stroke="#292D32" stroke-width="1.5" stroke-linecap="round" stroke-linejoin="round"/>
<path d="M26.455 19.6899C26.565 20.8587 25.63 21.8624 24.4338 21.8624H22.5638C21.4913 21.8624 21.34 21.4087 21.1475 20.8312L20.9413 20.2399C20.6663 19.4286 20.4875 18.8786 19.0438 18.8786H13.9425C12.5125 18.8786 12.2925 19.4974 12.045 20.2399L11.8388 20.8312C11.6463 21.3949 11.495 21.8624 10.4225 21.8624H8.55251C7.35626 21.8624 6.42126 20.8587 6.53126 19.6899L7.09502 13.6124C7.23252 12.1137 7.52126 10.8899 10.1338 10.8899H22.8525C25.465 10.8899 25.7538 12.1137 25.8913 13.6124L26.455 19.6899Z" stroke="#292D32" stroke-width="1.5" stroke-linecap="round" stroke-linejoin="round"/>
<path d="M8.52523 7.90625H7.52148" stroke="#292D32" stroke-width="1.5" stroke-linecap="round" stroke-linejoin="round"/>
<path d="M25.4788 7.90625H24.4751" stroke="#292D32" stroke-width="1.5" stroke-linecap="round" stroke-linejoin="round"/>
<path d="M10.5186 14.8914H13.5023" stroke="#292D32" stroke-width="1.5" stroke-linecap="round" stroke-linejoin="round"/>
<path d="M19.4976 14.8914H22.4813" stroke="#292D32" stroke-width="1.5" stroke-linecap="round" stroke-linejoin="round"/>
<path d="M16.5 23.375V24.75" stroke="#292D32" stroke-width="1.5" stroke-linecap="round" stroke-linejoin="round"/>
<path d="M16.5 28.875V30.25" stroke="#292D32" stroke-width="1.5" stroke-linecap="round" stroke-linejoin="round"/>
<path d="M4.125 24.75L2.75 30.25" stroke="#292D32" stroke-width="1.5" stroke-linecap="round" stroke-linejoin="round"/>
<path d="M28.875 24.75L30.25 30.25" stroke="#292D32" stroke-width="1.5" stroke-linecap="round" stroke-linejoin="round"/>
</svg>
