<svg width="33" height="33" viewBox="0 0 33 33" fill="none" xmlns="http://www.w3.org/2000/svg">
<path d="M2.84608 6.32496C3.94608 1.56746 11.1098 1.56746 12.1961 6.32496C12.8423 9.11621 11.0686 11.4812 9.52858 12.9525C8.40108 14.025 6.62733 14.0112 5.49983 12.9525C3.97358 11.4812 2.19983 9.11621 2.84608 6.32496Z" stroke="#292D32" stroke-width="1.5"/>
<path d="M20.7215 22.825C21.8215 18.0675 29.0265 18.0675 30.1265 22.825C30.7727 25.6162 28.999 27.9812 27.4452 29.4525C26.3177 30.525 24.5302 30.5112 23.4027 29.4525C21.849 27.9812 20.0752 25.6162 20.7215 22.825Z" stroke="#292D32" stroke-width="1.5"/>
<path d="M16.4998 6.875H20.1848C22.7286 6.875 23.9111 10.0238 21.9998 11.7013L11.0136 21.3125C9.10233 22.9763 10.2848 26.125 12.8148 26.125H16.4998" stroke="#292D32" stroke-width="1.5" stroke-linecap="round" stroke-linejoin="round"/>
<path d="M7.54361 7.5625H7.5595" stroke="#292D32" stroke-width="2" stroke-linecap="round" stroke-linejoin="round"/>
<path d="M25.4186 24.0625H25.4345" stroke="#292D32" stroke-width="2" stroke-linecap="round" stroke-linejoin="round"/>
</svg>
