<svg width="33" height="33" viewBox="0 0 33 33" fill="none" xmlns="http://www.w3.org/2000/svg">
<path d="M28.9852 11.7975V21.2025C28.9852 22.7425 28.1602 24.1726 26.8265 24.9563L18.659 29.6725C17.3252 30.4425 15.6752 30.4425 14.3277 29.6725L6.16021 24.9563C4.82646 24.1863 4.00146 22.7563 4.00146 21.2025V11.7975C4.00146 10.2575 4.82646 8.82749 6.16021 8.04374L14.3277 3.3275C15.6615 2.5575 17.3115 2.5575 18.659 3.3275L26.8265 8.04374C28.1602 8.82749 28.9852 10.2438 28.9852 11.7975Z" stroke="#292D32" stroke-width="1.5" stroke-linecap="round" stroke-linejoin="round"/>
<path d="M16.5001 15.125C18.2695 15.125 19.7039 13.6906 19.7039 11.9212C19.7039 10.1518 18.2695 8.71753 16.5001 8.71753C14.7308 8.71753 13.2964 10.1518 13.2964 11.9212C13.2964 13.6906 14.7308 15.125 16.5001 15.125Z" stroke="#292D32" stroke-width="1.5" stroke-linecap="round" stroke-linejoin="round"/>
<path d="M22 22.9075C22 20.4325 19.5388 18.425 16.5 18.425C13.4612 18.425 11 20.4325 11 22.9075" stroke="#292D32" stroke-width="1.5" stroke-linecap="round" stroke-linejoin="round"/>
</svg>
