<svg width="17" height="17" viewBox="0 0 17 17" fill="none" xmlns="http://www.w3.org/2000/svg">
<path fill-rule="evenodd" clip-rule="evenodd" d="M4.72083 1.25C2.6125 1.25 1.25 2.69417 1.25 4.93V11.7367C1.25 13.9725 2.6125 15.4167 4.72083 15.4167H11.9442C14.0533 15.4167 15.4167 13.9725 15.4167 11.7367V4.93C15.4167 2.69417 14.0542 1.25 11.945 1.25H4.72083ZM11.9442 16.6667H4.72083C1.89667 16.6667 0 14.685 0 11.7367V4.93C0 1.98167 1.89667 0 4.72083 0H11.945C14.7692 0 16.6667 1.98167 16.6667 4.93V11.7367C16.6667 14.685 14.7692 16.6667 11.9442 16.6667Z" fill="#212121"/>
<path fill-rule="evenodd" clip-rule="evenodd" d="M11.1584 10.6396C11.0492 10.6396 10.9392 10.6112 10.8384 10.5521L8.01252 8.86625C7.82419 8.75291 7.70752 8.54875 7.70752 8.32958V4.69458C7.70752 4.34958 7.98752 4.06958 8.33252 4.06958C8.67752 4.06958 8.95752 4.34958 8.95752 4.69458V7.97458L11.4792 9.47708C11.775 9.65458 11.8725 10.0379 11.6959 10.3346C11.5784 10.5304 11.3709 10.6396 11.1584 10.6396Z" fill="#212121"/>
</svg>
