<svg width="18" height="17" viewBox="0 0 18 17" fill="none" xmlns="http://www.w3.org/2000/svg">
<path fill-rule="evenodd" clip-rule="evenodd" d="M8.98075 9.55399C8.42325 9.55399 7.86742 9.36983 7.40242 9.00149L3.66492 5.98816C3.39575 5.77149 3.35408 5.37733 3.56992 5.10899C3.78742 4.84149 4.18075 4.79899 4.44908 5.01483L8.18325 8.02483C8.65242 8.39649 9.31325 8.39649 9.78575 8.02149L13.4824 5.01649C13.7507 4.79733 14.1441 4.83899 14.3624 5.10733C14.5799 5.37483 14.5391 5.76816 14.2716 5.98649L10.5683 8.99649C10.0999 9.36816 9.53992 9.55399 8.98075 9.55399" fill="#212121"/>
<mask id="mask0_2635_1299" style="mask-type:luminance" maskUnits="userSpaceOnUse" x="0" y="0" width="18" height="17">
<path fill-rule="evenodd" clip-rule="evenodd" d="M0 0H17.9166V16.25H0V0Z" fill="white"/>
</mask>
<g mask="url(#mask0_2635_1299)">
<path fill-rule="evenodd" clip-rule="evenodd" d="M4.86575 15H13.0491C13.0508 14.9983 13.0574 15 13.0624 15C14.0133 15 14.8566 14.66 15.5033 14.0142C16.2541 13.2667 16.6666 12.1925 16.6666 10.99V5.26667C16.6666 2.93917 15.1449 1.25 13.0491 1.25H4.86742C2.77158 1.25 1.24992 2.93917 1.24992 5.26667V10.99C1.24992 12.1925 1.66325 13.2667 2.41325 14.0142C3.05992 14.66 3.90408 15 4.85408 15H4.86575ZM4.85158 16.25C3.56575 16.25 2.41742 15.7833 1.53075 14.9C0.54325 13.915 -8.29697e-05 12.5267 -8.29697e-05 10.99V5.26667C-8.29697e-05 2.26417 2.09242 0 4.86742 0H13.0491C15.8241 0 17.9166 2.26417 17.9166 5.26667V10.99C17.9166 12.5267 17.3732 13.915 16.3858 14.9C15.4999 15.7825 14.3508 16.25 13.0624 16.25H13.0491H4.86742H4.85158Z" fill="#212121"/>
</g>
</svg>
