<svg width="18" height="20" viewBox="0 0 18 20" fill="none" xmlns="http://www.w3.org/2000/svg">
<mask id="mask0_2669_1048" style="mask-type:luminance" maskUnits="userSpaceOnUse" x="0" y="0" width="18" height="20">
<path fill-rule="evenodd" clip-rule="evenodd" d="M0 0.0114746H17.0527V19.865H0V0.0114746Z" fill="white"/>
</mask>
<g mask="url(#mask0_2669_1048)">
<path fill-rule="evenodd" clip-rule="evenodd" d="M4.5731 1.51147C2.9161 1.51147 1.5401 2.85347 1.5011 4.50847V15.2035C1.4641 16.9165 2.8141 18.3275 4.5101 18.3655H12.5741C14.2431 18.2965 15.5651 16.9095 15.5531 15.2095V6.33947L10.9181 1.51147H4.5851H4.5731ZM4.5851 19.8655H4.4761C1.9541 19.8085 -0.0538966 17.7105 0.00110343 15.1875V4.49047C0.0591034 2.00947 2.1081 0.0114746 4.5711 0.0114746H4.5881H11.2381C11.4421 0.0114746 11.6371 0.0944746 11.7791 0.241475L16.8441 5.51847C16.9781 5.65747 17.0531 5.84447 17.0531 6.03747V15.2035C17.0711 17.7125 15.1171 19.7625 12.6041 19.8645L4.5851 19.8655Z" fill="#212121"/>
</g>
<path fill-rule="evenodd" clip-rule="evenodd" d="M10.7882 14.1082H5.38818C4.97418 14.1082 4.63818 13.7722 4.63818 13.3582C4.63818 12.9442 4.97418 12.6082 5.38818 12.6082H10.7882C11.2022 12.6082 11.5382 12.9442 11.5382 13.3582C11.5382 13.7722 11.2022 14.1082 10.7882 14.1082Z" fill="#212121"/>
<path fill-rule="evenodd" clip-rule="evenodd" d="M8.7437 10.3562H5.3877C4.9737 10.3562 4.6377 10.0202 4.6377 9.6062C4.6377 9.1922 4.9737 8.8562 5.3877 8.8562H8.7437C9.1577 8.8562 9.4937 9.1922 9.4937 9.6062C9.4937 10.0202 9.1577 10.3562 8.7437 10.3562Z" fill="#212121"/>
<path fill-rule="evenodd" clip-rule="evenodd" d="M16.2981 6.984H13.5431C11.7131 6.979 10.2251 5.487 10.2251 3.659V0.75C10.2251 0.336 10.5611 0 10.9751 0C11.3891 0 11.7251 0.336 11.7251 0.75V3.659C11.7251 4.663 12.5421 5.481 13.5451 5.484H16.2981C16.7121 5.484 17.0481 5.82 17.0481 6.234C17.0481 6.648 16.7121 6.984 16.2981 6.984Z" fill="#212121"/>
</svg>
