<svg width="24" height="24" viewBox="0 0 24 24" fill="none" xmlns="http://www.w3.org/2000/svg">
<g clip-path="url(#clip0_2621_18937)">
<path d="M11.7602 0.959961C9.57671 0.959961 7.44224 1.60745 5.62672 2.82054C3.8112 4.03363 2.39618 5.75784 1.56059 7.77514C0.724998 9.79243 0.50637 12.0122 0.93235 14.1538C1.35833 16.2953 2.40979 18.2624 3.95376 19.8064C5.49773 21.3504 7.46487 22.4018 9.60642 22.8278C11.748 23.2538 13.9677 23.0352 15.985 22.1996C18.0023 21.364 19.7265 19.949 20.9396 18.1335C22.1527 16.3179 22.8002 14.1835 22.8002 12C22.8002 9.07197 21.6371 6.2639 19.5667 4.1935C17.4963 2.1231 14.6882 0.959961 11.7602 0.959961Z" stroke="black" stroke-width="1.5" stroke-miterlimit="10"/>
<path d="M9.37451 9.48129C9.37451 9.48129 9.41389 8.66086 10.292 7.95435C10.8128 7.53476 11.4373 7.41334 11.9999 7.4049C12.5123 7.39833 12.9699 7.48319 13.2437 7.61352C13.7125 7.83668 14.6253 8.38144 14.6253 9.53989C14.6253 10.7588 13.8283 11.3125 12.9202 11.9215C12.0121 12.5305 11.7655 13.1915 11.7655 13.8746" stroke="black" stroke-width="1.5" stroke-miterlimit="10" stroke-linecap="round"/>
<path d="M11.7238 17.2588C12.244 17.2588 12.6658 16.837 12.6658 16.3168C12.6658 15.7965 12.244 15.3748 11.7238 15.3748C11.2035 15.3748 10.7817 15.7965 10.7817 16.3168C10.7817 16.837 11.2035 17.2588 11.7238 17.2588Z" fill="black"/>
</g>
<defs>
<clipPath id="clip0_2621_18937">
<rect width="24" height="24" fill="white"/>
</clipPath>
</defs>
</svg>
