<svg width="33" height="33" viewBox="0 0 33 33" fill="none" xmlns="http://www.w3.org/2000/svg">
<path d="M30.8279 27.3823L23.6092 12.9448C23.5235 12.7735 23.3919 12.6295 23.229 12.5288C23.0661 12.4281 22.8783 12.3748 22.6869 12.3748C22.4954 12.3748 22.3076 12.4281 22.1447 12.5288C21.9818 12.6295 21.8502 12.7735 21.7645 12.9448L18.966 18.5432C16.7724 18.4198 14.6618 17.6621 12.8906 16.3621C14.9687 14.1429 16.2278 11.2814 16.46 8.25H19.5938C19.8673 8.25 20.1296 8.14135 20.323 7.94795C20.5164 7.75456 20.625 7.49225 20.625 7.21875C20.625 6.94525 20.5164 6.68294 20.323 6.48955C20.1296 6.29615 19.8673 6.1875 19.5938 6.1875H12.375V4.125C12.375 3.8515 12.2664 3.58919 12.073 3.3958C11.8796 3.2024 11.6173 3.09375 11.3438 3.09375C11.0702 3.09375 10.8079 3.2024 10.6145 3.3958C10.4211 3.58919 10.3125 3.8515 10.3125 4.125V6.1875H3.09375C2.82025 6.1875 2.55794 6.29615 2.36455 6.48955C2.17115 6.68294 2.0625 6.94525 2.0625 7.21875C2.0625 7.49225 2.17115 7.75456 2.36455 7.94795C2.55794 8.14135 2.82025 8.25 3.09375 8.25H14.3898C14.1601 10.7774 13.0873 13.1542 11.3438 14.9982C10.2573 13.8518 9.42296 12.4906 8.89453 11.0021C8.85108 10.8723 8.7822 10.7524 8.69191 10.6494C8.60162 10.5465 8.49173 10.4625 8.36865 10.4025C8.24557 10.3425 8.11176 10.3075 7.97504 10.2998C7.83832 10.292 7.70142 10.3115 7.57234 10.3573C7.44325 10.403 7.32456 10.4739 7.2232 10.566C7.12183 10.6581 7.03982 10.7694 6.98194 10.8935C6.92407 11.0176 6.89149 11.152 6.88611 11.2889C6.88074 11.4257 6.90267 11.5622 6.95062 11.6905C7.56585 13.4306 8.53498 15.0243 9.79688 16.3711C7.85395 17.7988 5.50485 18.5668 3.09375 18.5625C2.82025 18.5625 2.55794 18.6711 2.36455 18.8645C2.17115 19.0579 2.0625 19.3202 2.0625 19.5938C2.0625 19.8673 2.17115 20.1296 2.36455 20.323C2.55794 20.5164 2.82025 20.625 3.09375 20.625C6.08513 20.6283 8.99078 19.6259 11.3438 17.7787C13.2639 19.279 15.5561 20.2286 17.9747 20.5257L14.5458 27.3823C14.4234 27.6269 14.4032 27.9101 14.4896 28.1696C14.576 28.4291 14.762 28.6437 15.0066 28.7661C15.2512 28.8885 15.5345 28.9087 15.794 28.8223C16.0535 28.7358 16.268 28.5499 16.3904 28.3052L18.168 24.75H27.2057L28.9833 28.3052C29.069 28.4766 29.2008 28.6206 29.3638 28.7213C29.5268 28.8219 29.7147 28.8751 29.9062 28.875C30.082 28.8749 30.2548 28.8299 30.4083 28.7442C30.5618 28.6586 30.6908 28.5351 30.7832 28.3855C30.8755 28.236 30.9281 28.0653 30.9359 27.8897C30.9438 27.7141 30.9066 27.5394 30.8279 27.3823ZM19.1993 22.6875L22.6875 15.7124L26.1744 22.6875H19.1993Z" />
</svg>
