<svg width="33" height="33" viewBox="0 0 33 33" fill="none" xmlns="http://www.w3.org/2000/svg">
<path d="M28.875 9.625V23.375C28.875 27.5 26.8125 30.25 22 30.25H11C6.1875 30.25 4.125 27.5 4.125 23.375V9.625C4.125 5.5 6.1875 2.75 11 2.75H22C26.8125 2.75 28.875 5.5 28.875 9.625Z" stroke="#292D32" stroke-width="1.5" stroke-miterlimit="10" stroke-linecap="round" stroke-linejoin="round"/>
<path d="M21.3125 2.75V13.5575C21.3125 14.1625 20.5975 14.465 20.1575 14.0662L16.9675 11.1238C16.7063 10.8763 16.2937 10.8763 16.0325 11.1238L12.8425 14.0662C12.4025 14.465 11.6875 14.1625 11.6875 13.5575V2.75H21.3125Z" stroke="#292D32" stroke-width="1.5" stroke-miterlimit="10" stroke-linecap="round" stroke-linejoin="round"/>
<path d="M18.2188 19.25H24.0625" stroke="#292D32" stroke-width="1.5" stroke-miterlimit="10" stroke-linecap="round" stroke-linejoin="round"/>
<path d="M12.375 24.75H24.0625" stroke="#292D32" stroke-width="1.5" stroke-miterlimit="10" stroke-linecap="round" stroke-linejoin="round"/>
</svg>
