<svg width="33" height="39" viewBox="0 0 33 39" fill="none" xmlns="http://www.w3.org/2000/svg">
<path fill-rule="evenodd" clip-rule="evenodd" d="M16.5011 13.0003C14.5711 13.0003 13.0011 14.5703 13.0011 16.5023C13.0011 18.4323 14.5711 20.0003 16.5011 20.0003C18.4311 20.0003 20.0011 18.4323 20.0011 16.5023C20.0011 14.5703 18.4311 13.0003 16.5011 13.0003ZM16.501 23.0002C12.917 23.0002 10.001 20.0862 10.001 16.5022C10.001 12.9162 12.917 10.0002 16.501 10.0002C20.085 10.0002 23.001 12.9162 23.001 16.5022C23.001 20.0862 20.085 23.0002 16.501 23.0002Z" fill="#212121"/>
<mask id="mask0_2760_1206" style="mask-type:luminance" maskUnits="userSpaceOnUse" x="0" y="0" width="33" height="39">
<path fill-rule="evenodd" clip-rule="evenodd" d="M0 0H32.999V39H0V0Z" fill="white"/>
</mask>
<g mask="url(#mask0_2760_1206)">
<path fill-rule="evenodd" clip-rule="evenodd" d="M16.4991 2.99969C9.05511 2.99969 2.99911 9.11369 2.99911 16.6257C2.99911 26.1837 14.2471 35.4957 16.4991 35.9917C18.7511 35.4937 29.9991 26.1817 29.9991 16.6257C29.9991 9.11369 23.9431 2.99969 16.4991 2.99969ZM16.499 39C12.911 39 -0.000976562 27.896 -0.000976562 16.626C-0.000976562 7.458 7.40102 0 16.499 0C25.597 0 32.999 7.458 32.999 16.626C32.999 27.896 20.087 39 16.499 39Z" fill="#212121"/>
</g>
</svg>
