<svg width="23" height="24" viewBox="0 0 23 24" fill="none" xmlns="http://www.w3.org/2000/svg">
<path d="M16.7083 2.08325H6.29165C3.41665 2.08325 1.08331 4.40617 1.08331 7.27075V13.4999V14.5416C1.08331 17.4062 3.41665 19.7291 6.29165 19.7291H7.85415C8.1354 19.7291 8.5104 19.9166 8.68748 20.1458L10.25 22.2187C10.9375 23.1353 12.0625 23.1353 12.75 22.2187L14.3125 20.1458C14.5104 19.8853 14.8229 19.7291 15.1458 19.7291H16.7083C19.5833 19.7291 21.9166 17.4062 21.9166 14.5416V7.27075C21.9166 4.40617 19.5833 2.08325 16.7083 2.08325ZM7.33331 12.4999C6.74998 12.4999 6.29165 12.0312 6.29165 11.4583C6.29165 10.8853 6.7604 10.4166 7.33331 10.4166C7.90623 10.4166 8.37498 10.8853 8.37498 11.4583C8.37498 12.0312 7.91665 12.4999 7.33331 12.4999ZM11.5 12.4999C10.9166 12.4999 10.4583 12.0312 10.4583 11.4583C10.4583 10.8853 10.9271 10.4166 11.5 10.4166C12.0729 10.4166 12.5416 10.8853 12.5416 11.4583C12.5416 12.0312 12.0833 12.4999 11.5 12.4999ZM15.6666 12.4999C15.0833 12.4999 14.625 12.0312 14.625 11.4583C14.625 10.8853 15.0937 10.4166 15.6666 10.4166C16.2396 10.4166 16.7083 10.8853 16.7083 11.4583C16.7083 12.0312 16.25 12.4999 15.6666 12.4999Z" />
</svg>
