<svg width="33" height="33" viewBox="0 0 33 33" fill="none" xmlns="http://www.w3.org/2000/svg">
<path d="M19.2502 22.2199L13.8052 16.7749" stroke="#292D32" stroke-width="1.5" stroke-miterlimit="10" stroke-linecap="round" stroke-linejoin="round"/>
<path d="M19.195 16.8301L13.75 22.2751" stroke="#292D32" stroke-width="1.5" stroke-miterlimit="10" stroke-linecap="round" stroke-linejoin="round"/>
<path d="M13.75 8.25H19.25C22 8.25 22 6.875 22 5.5C22 2.75 20.625 2.75 19.25 2.75H13.75C12.375 2.75 11 2.75 11 5.5C11 8.25 12.375 8.25 13.75 8.25Z" stroke="#292D32" stroke-width="1.5" stroke-miterlimit="10" stroke-linecap="round" stroke-linejoin="round"/>
<path d="M22 5.52759C26.5787 5.77509 28.875 7.46634 28.875 13.7501V22.0001C28.875 27.5001 27.5 30.2501 20.625 30.2501H12.375C5.5 30.2501 4.125 27.5001 4.125 22.0001V13.7501C4.125 7.48009 6.42125 5.77509 11 5.52759" stroke="#292D32" stroke-width="1.5" stroke-miterlimit="10" stroke-linecap="round" stroke-linejoin="round"/>
</svg>
