<svg width="20" height="20" viewBox="0 0 20 20" fill="none" xmlns="http://www.w3.org/2000/svg">
<path d="M14.9999 5.96675C14.9499 5.95842 14.8916 5.95842 14.8416 5.96675C13.6916 5.92508 12.7749 4.98342 12.7749 3.81675C12.7749 2.62508 13.7332 1.66675 14.9249 1.66675C16.1166 1.66675 17.0749 2.63342 17.0749 3.81675C17.0666 4.98342 16.1499 5.92508 14.9999 5.96675Z" stroke="#292D32" stroke-width="1.5" stroke-linecap="round" stroke-linejoin="round"/>
<path d="M14.1415 12.0333C15.2831 12.225 16.5415 12.025 17.4248 11.4333C18.5998 10.65 18.5998 9.36664 17.4248 8.58331C16.5331 7.99164 15.2581 7.79163 14.1165 7.99163" stroke="#292D32" stroke-width="1.5" stroke-linecap="round" stroke-linejoin="round"/>
<path d="M4.9749 5.96675C5.0249 5.95842 5.08324 5.95842 5.13324 5.96675C6.28324 5.92508 7.1999 4.98342 7.1999 3.81675C7.1999 2.62508 6.24157 1.66675 5.0499 1.66675C3.85824 1.66675 2.8999 2.63342 2.8999 3.81675C2.90824 4.98342 3.8249 5.92508 4.9749 5.96675Z" stroke="#292D32" stroke-width="1.5" stroke-linecap="round" stroke-linejoin="round"/>
<path d="M5.83328 12.0333C4.69162 12.225 3.43328 12.025 2.54995 11.4333C1.37495 10.65 1.37495 9.36664 2.54995 8.58331C3.44162 7.99164 4.71662 7.79163 5.85828 7.99163" stroke="#292D32" stroke-width="1.5" stroke-linecap="round" stroke-linejoin="round"/>
<path d="M10.0001 12.1916C9.95015 12.1833 9.89181 12.1833 9.84181 12.1916C8.69181 12.1499 7.77515 11.2083 7.77515 10.0416C7.77515 8.84994 8.73348 7.8916 9.92514 7.8916C11.1168 7.8916 12.0751 8.85827 12.0751 10.0416C12.0668 11.2083 11.1501 12.1583 10.0001 12.1916Z" stroke="#292D32" stroke-width="1.5" stroke-linecap="round" stroke-linejoin="round"/>
<path d="M7.5751 14.8166C6.4001 15.5999 6.4001 16.8832 7.5751 17.6666C8.90843 18.5582 11.0918 18.5582 12.4251 17.6666C13.6001 16.8832 13.6001 15.5999 12.4251 14.8166C11.1001 13.9332 8.90843 13.9332 7.5751 14.8166Z" stroke="#292D32" stroke-width="1.5" stroke-linecap="round" stroke-linejoin="round"/>
</svg>
