<svg width="20" height="20" viewBox="0 0 20 20" fill="none" xmlns="http://www.w3.org/2000/svg">
<path fill-rule="evenodd" clip-rule="evenodd" d="M10.0001 2.91675C6.09425 2.91675 2.91675 6.09425 2.91675 10.0001C2.91675 13.9059 6.09425 17.0834 10.0001 17.0834C13.9059 17.0834 17.0834 13.9059 17.0834 10.0001C17.0834 6.09425 13.9059 2.91675 10.0001 2.91675M10.0001 18.3334C5.40508 18.3334 1.66675 14.5951 1.66675 10.0001C1.66675 5.40508 5.40508 1.66675 10.0001 1.66675C14.5951 1.66675 18.3334 5.40508 18.3334 10.0001C18.3334 14.5951 14.5951 18.3334 10.0001 18.3334" fill="#212121"/>
<path fill-rule="evenodd" clip-rule="evenodd" d="M12.8594 13.077C12.7503 13.077 12.6403 13.0487 12.5394 12.9895L9.39777 11.1153C9.20944 11.002 9.09277 10.7978 9.09277 10.5778V6.53784C9.09277 6.19284 9.37277 5.91284 9.71777 5.91284C10.0636 5.91284 10.3428 6.19284 10.3428 6.53784V10.2228L13.1803 11.9145C13.4761 12.092 13.5736 12.4753 13.3969 12.772C13.2794 12.9678 13.0719 13.077 12.8594 13.077" fill="#212121"/>
</svg>
