<svg width="75" height="116" viewBox="0 0 75 116" fill="none" xmlns="http://www.w3.org/2000/svg">
<path d="M0 19.6C0 12.7394 0 9.30904 1.33517 6.68862C2.50962 4.38363 4.38363 2.50962 6.68862 1.33517C9.30904 0 12.7394 0 19.6 0H54.775C61.6356 0 65.066 0 67.6864 1.33517C69.9914 2.50962 71.8654 4.38363 73.0398 6.68862C74.375 9.30904 74.375 12.7394 74.375 19.6V133.525C74.375 140.386 74.375 143.816 73.0398 146.436C71.8654 148.741 69.9914 150.615 67.6864 151.79C65.066 153.125 61.6356 153.125 54.775 153.125H19.6C12.7394 153.125 9.30904 153.125 6.68862 151.79C4.38363 150.615 2.50962 148.741 1.33517 146.436C0 143.816 0 140.386 0 133.525V19.6Z" />
<path d="M3.5 17.5C3.5 12.5995 3.5 10.1493 4.45369 8.27758C5.29258 6.63116 6.63116 5.29258 8.27758 4.45369C10.1493 3.5 12.5995 3.5 17.5 3.5H56.875C61.7755 3.5 64.2257 3.5 66.0974 4.45369C67.7438 5.29258 69.0824 6.63116 69.9213 8.27758C70.875 10.1493 70.875 12.5995 70.875 17.5V135.625C70.875 140.525 70.875 142.976 69.9213 144.847C69.0824 146.494 67.7438 147.832 66.0974 148.671C64.2257 149.625 61.7755 149.625 56.875 149.625H17.5C12.5995 149.625 10.1493 149.625 8.27758 148.671C6.63116 147.832 5.29258 146.494 4.45369 144.847C3.5 142.976 3.5 140.525 3.5 135.625V17.5Z" fill="white"/>
<rect x="26.25" y="5.25635" width="22.75" height="7.00846" rx="3.50423" />
</svg>
