<svg width="33" height="33" viewBox="0 0 33 33" fill="none" xmlns="http://www.w3.org/2000/svg">
<path d="M28.8751 27.8438C28.8751 28.1173 28.7664 28.3796 28.573 28.573C28.3796 28.7664 28.1173 28.875 27.8438 28.875H9.28134C9.00783 28.875 8.74553 28.7664 8.55213 28.573C8.35874 28.3796 8.25009 28.1173 8.25009 27.8438C8.25009 27.5702 8.35874 27.3079 8.55213 27.1145C8.74553 26.9211 9.00783 26.8125 9.28134 26.8125H27.8438C28.1173 26.8125 28.3796 26.9211 28.573 27.1145C28.7664 27.3079 28.8751 27.5702 28.8751 27.8438ZM31.9688 17.5313V20.625C31.9688 20.8985 31.8602 21.1608 31.6668 21.3542C31.4734 21.5476 31.2111 21.6563 30.9376 21.6563H7.87239C6.76222 21.6613 5.68042 21.3057 4.7898 20.6429C3.89918 19.9801 3.2479 19.046 2.93399 17.9811L1.12028 11.9367C1.02788 11.6289 1.0087 11.3037 1.06426 10.9872C1.11983 10.6706 1.2486 10.3714 1.44032 10.1135C1.63203 9.8555 1.88138 9.64592 2.16847 9.50143C2.45556 9.35694 2.77244 9.28154 3.09384 9.28125H4.12509C4.39823 9.28138 4.66016 9.38986 4.85341 9.58289L7.6468 12.375H10.5459L9.38575 8.90227C9.28236 8.59211 9.25418 8.26182 9.30353 7.93864C9.35289 7.61545 9.47836 7.30863 9.66961 7.04347C9.86086 6.77831 10.1124 6.56242 10.4035 6.41359C10.6946 6.26477 11.0169 6.18727 11.3438 6.1875H12.3751C12.5106 6.18739 12.6447 6.21398 12.7699 6.26573C12.8951 6.31749 13.0089 6.39341 13.1047 6.48914L18.9906 12.375H26.8126C28.1801 12.375 29.4916 12.9182 30.4586 13.8852C31.4256 14.8522 31.9688 16.1637 31.9688 17.5313ZM29.9063 17.5313C29.9063 16.7107 29.5804 15.9238 29.0002 15.3436C28.42 14.7634 27.6331 14.4375 26.8126 14.4375H18.5626C18.2894 14.4374 18.0275 14.3289 17.8343 14.1359L11.9484 8.25H11.3438L12.9539 13.0801C13.0055 13.235 13.0196 13.4 12.9951 13.5615C12.9705 13.7229 12.9079 13.8762 12.8125 14.0087C12.7171 14.1413 12.5916 14.2493 12.4463 14.3238C12.301 14.3983 12.1401 14.4373 11.9768 14.4375H7.21884C7.08337 14.4376 6.94921 14.411 6.82402 14.3593C6.69883 14.3075 6.58507 14.2316 6.48923 14.1359L3.69841 11.3438H3.09384L4.90755 17.3895C5.09612 18.0285 5.48721 18.5891 6.02194 18.9866C6.55667 19.3842 7.20608 19.5972 7.87239 19.5938H29.9063V17.5313Z" fill="#212121"/>
</svg>
