<svg width="16" height="20" viewBox="0 0 16 20" xmlns="http://www.w3.org/2000/svg">
  <path d="M7.921 10.619c2.928 0 5.309-2.381 5.309-5.309S10.849 0 7.921 0 2.612 2.382 2.612 5.31c0 2.928 2.381 5.309 5.309 5.309zm0-9.19c2.14 0 3.882 1.742 3.882 3.881s-1.742 3.882-3.882 3.882-3.882-1.742-3.882-3.882 1.742-3.881 3.882-3.881z" fill="currentColor"/>
  <path d="M7.921 12.496c-3.4 0-7.921.381-7.921 3.677 0 3.697 5.962 3.697 7.921 3.697 1.959 0 7.92 0 7.92-3.697 0-3.296-4.52-3.677-7.92-3.677zm0 5.874c-4.261 0-6.421-.739-6.421-2.197 0-1.445 2.16-2.177 6.421-2.177 4.26 0 6.42.732 6.42 2.177 0 1.458-2.16 2.197-6.42 2.197z" fill="currentColor"/>
</svg>