<svg width="24" height="24" viewBox="0 0 24 24" fill="none" xmlns="http://www.w3.org/2000/svg">
<path d="M20.8425 8.25087C20.8564 8.43787 20.8564 8.62381 20.8564 8.80974C20.8564 14.5 16.5254 21.0569 8.61032 21.0569C6.17179 21.0569 3.90637 20.3506 2 19.1238C2.34622 19.1633 2.67963 19.1772 3.03974 19.1772C4.97709 19.1819 6.85958 18.5341 8.38378 17.3382C7.48554 17.3219 6.6148 17.0256 5.89314 16.4905C5.17148 15.9554 4.63492 15.2084 4.35839 14.3536C4.62447 14.3931 4.89161 14.4199 5.17159 14.4199C5.55735 14.4199 5.94525 14.3664 6.30536 14.2735C5.33055 14.0766 4.454 13.5483 3.82475 12.7782C3.1955 12.0081 2.85241 11.0438 2.85381 10.0493V9.99588C3.42764 10.3154 4.09337 10.5152 4.79865 10.5419C4.20781 10.1493 3.72334 9.61655 3.38847 8.99118C3.05359 8.3658 2.87872 7.66726 2.87945 6.95787C2.87945 6.15856 3.0921 5.4255 3.46504 4.78649C4.54661 6.11691 5.89556 7.20531 7.42454 7.98122C8.95352 8.75712 10.6284 9.20321 12.3408 9.29061C12.2745 8.97003 12.2339 8.6377 12.2339 8.3043C12.2336 7.73897 12.3448 7.17913 12.561 6.65678C12.7772 6.13443 13.0942 5.65982 13.494 5.26007C13.8937 4.86033 14.3684 4.54329 14.8907 4.32707C15.413 4.11086 15.9729 3.99972 16.5382 4C17.7778 4 18.8966 4.51934 19.6831 5.35925C20.6467 5.17291 21.5708 4.82113 22.4144 4.31951C22.0932 5.31417 21.4204 6.1576 20.5219 6.69179C21.3766 6.59431 22.2118 6.36956 23 6.02499C22.4113 6.88317 21.6819 7.63572 20.8425 8.25087Z" fill="#573C84"/>
</svg>
