<svg width="24" height="24" viewBox="0 0 24 24" fill="none" xmlns="http://www.w3.org/2000/svg">
<path d="M13.2148 1.44678C15.7071 1.44681 18.0537 2.41612 19.8232 4.17725C21.5923 5.94666 22.5537 8.29408 22.5537 10.7876C22.5536 13.1247 21.7012 15.3337 20.1436 17.0591L19.8232 17.397C18.0711 19.1494 15.6983 20.1362 13.2148 20.1362H10.957C10.5883 18.7591 9.31725 17.7251 7.82617 17.7251C6.74623 17.7252 5.79941 18.2476 5.20312 19.0337C4.41794 18.6117 3.69028 18.0503 3.06348 17.3999L3.06055 17.397L2.76758 17.0903C2.24605 16.5204 1.91013 16.0068 1.71875 15.6196C2.20296 15.4562 2.63359 15.1684 2.99414 14.7847L2.99512 14.7856C3.5668 14.1853 3.8584 13.3791 3.8584 12.5776V10.7876C3.8584 8.72808 4.53972 6.69533 5.81348 5.08154L5.81445 5.08057C7.62749 2.75639 10.3145 1.44678 13.2148 1.44678Z" fill="white" stroke="#8D62D7" stroke-width="0.5"/>
<path d="M24 10.7782C24 7.89587 22.8822 5.18822 20.8474 3.15311C18.8214 1.1442 16.0793 0.00873437 13.2237 0C9.92269 0 6.84001 1.49358 4.72668 4.14883C3.20717 6.06165 2.41249 8.41994 2.41249 10.8568V12.5862C2.41249 13.4859 1.79246 14.3244 0.552405 14.403C0.25549 14.4292 0.00223845 14.6301 0.00223845 14.927C-0.0501583 15.7481 0.823121 17.2416 2.01078 18.4295C2.83166 19.2768 3.801 19.9493 4.84021 20.4646C4.68301 21.3381 4.9188 22.2377 5.49516 22.919C6.0628 23.6003 6.90988 23.9933 7.80062 23.9933C9.26773 23.9933 10.4554 22.9714 10.7348 21.6088H13.2412C13.5643 23.3033 15.3283 24.465 17.2146 23.8186C18.8563 23.2684 19.5724 21.4079 18.9786 19.8882C19.6248 19.4689 20.2449 18.9711 20.8125 18.4208C22.8647 16.4031 24.0087 13.6518 24 10.7782ZM13.215 20.386H10.761C10.4903 19.0235 9.26773 17.9753 7.82682 17.9753C6.76142 17.9753 5.83574 18.5256 5.29431 19.3379V19.3641C4.40357 18.9186 3.58268 18.2985 2.88406 17.5736C2.03698 16.7263 1.56541 15.9577 1.37329 15.4598C1.92345 15.3376 2.41249 15.0406 2.8142 14.6126C3.33817 14.0623 3.60888 13.3199 3.60888 12.5775V10.7869C3.60888 8.67323 4.30751 6.58572 5.61742 4.92619C7.47751 2.5417 10.2371 1.19661 13.215 1.19661C15.7737 1.19661 18.1839 2.19233 20.0003 4.00034C21.8168 5.81709 22.8036 8.22778 22.8036 10.7869C22.8036 13.3461 21.808 15.7568 20.0003 17.5736C18.2014 19.3728 15.7649 20.386 13.215 20.386ZM19.2056 8.39373C19.2056 9.04881 18.6729 9.58161 18.018 9.58161C17.363 9.58161 16.8216 9.04881 16.8216 8.39373C16.8216 7.73865 17.3543 7.19712 18.018 7.19712C18.6729 7.19712 19.2056 7.72992 19.2056 8.39373ZM12.0011 8.39373C12.0011 9.04881 11.4684 9.58161 10.8134 9.58161C10.1585 9.58161 9.61704 9.04881 9.61704 8.39373C9.61704 7.73865 10.1497 7.19712 10.8134 7.19712C11.4684 7.19712 12.0011 7.72992 12.0011 8.39373ZM11.1802 12.3155C11.0842 12.1146 10.8571 11.9661 10.63 11.9661C10.1934 11.9661 9.90522 12.4115 10.0799 12.8133C10.8484 14.4292 12.4901 15.5734 14.4288 15.5734C16.3675 15.5734 18.0093 14.4554 18.7777 12.8133C18.9524 12.4203 18.6817 11.9661 18.2276 11.9661H18.2014C17.9743 11.9661 17.7822 12.0884 17.6774 12.3155C17.1098 13.5295 15.861 14.3768 14.4201 14.3768C12.9966 14.3768 11.7566 13.5295 11.1802 12.3155Z" fill="#8D62D7"/>
</svg>
