<svg width="23" height="24" viewBox="0 0 23 24" fill="none" xmlns="http://www.w3.org/2000/svg">
<path fill-rule="evenodd" clip-rule="evenodd" d="M19.6492 3.34241C17.4871 1.18808 14.6116 0.00127778 11.5481 0C5.23585 0 0.0986055 5.11239 0.0960377 11.3962C0.0952673 13.4049 0.622447 15.3655 1.62468 17.0941L0 23L6.07092 21.415C7.74362 22.323 9.62688 22.8017 11.5435 22.8022H11.5481C11.5479 22.8022 11.5484 22.8022 11.5481 22.8022C17.8597 22.8022 22.9974 17.6893 23 11.4052C23.0013 8.35999 21.8113 5.49675 19.6492 3.34241ZM6.89751 11.811C6.75448 11.6209 5.72914 10.2669 5.72914 8.86522C5.72914 7.4635 6.46842 6.77452 6.7306 6.48958C6.99278 6.20463 7.30297 6.13333 7.49376 6.13333C7.68456 6.13333 7.8756 6.13512 8.04226 6.1433C8.2179 6.15224 8.45389 6.07686 8.68602 6.63218C8.92457 7.20232 9.49669 8.6043 9.56833 8.74664C9.63998 8.88925 9.68748 9.05536 9.59221 9.24549C9.49695 9.43537 9.44918 9.5542 9.30616 9.72057C9.16313 9.88693 9.00572 10.0919 8.87681 10.2194C8.73352 10.3615 8.58433 10.5156 8.75124 10.8005C8.91815 11.0857 9.49232 12.0183 10.3431 12.7734C11.4359 13.7438 12.358 14.0443 12.6441 14.1869C12.9302 14.3295 13.0971 14.3057 13.264 14.1156C13.4309 13.9255 13.9794 13.284 14.1702 12.9991C14.361 12.7141 14.5518 12.7617 14.8139 12.8565C15.0764 12.9516 16.483 13.6405 16.7691 13.7829C17.0552 13.9255 17.246 13.9968 17.3176 14.1156C17.3892 14.2344 17.3892 14.8046 17.1507 15.4698C16.9121 16.135 15.7689 16.7422 15.2191 16.8237C14.7261 16.8971 14.1024 16.9277 13.4168 16.7108C13.0013 16.5797 12.4682 16.4044 11.7854 16.111C8.91533 14.8774 7.0408 12.0011 6.89751 11.811Z" />
</svg>
