<svg width="26" height="27" viewBox="0 0 26 27" fill="none" xmlns="http://www.w3.org/2000/svg">
<path d="M23.8105 7.65492C23.2039 6.30738 22.3332 5.09754 21.2276 4.05492C20.122 3.02213 18.8403 2.20574 17.4119 1.63525C15.9345 1.04508 14.3691 0.75 12.7548 0.75C11.1405 0.75 9.57503 1.04508 8.09767 1.63525C6.66923 2.20574 5.38755 3.01229 4.28197 4.05492C3.1764 5.09754 2.30565 6.30738 1.69905 7.65492C1.07289 9.05164 0.75 10.5467 0.75 12.0811C0.75 14.7664 1.74794 17.3434 3.57752 19.3893L2.59914 24.75L7.80416 22.4189C9.35979 23.0877 11.0133 23.4221 12.745 23.4221C14.3593 23.4221 15.9248 23.127 17.4021 22.5369C18.8306 21.9664 20.1122 21.1598 21.2178 20.1172C22.3234 19.0746 23.1941 17.8648 23.8007 16.5172C24.4269 15.1205 24.7498 13.6254 24.7498 12.091C24.7596 10.5467 24.4367 9.06148 23.8105 7.65492Z" stroke="#8D62D7" stroke-width="1.5"/>
<path d="M17.627 14.3434C17.1182 14.0877 16.7465 13.9303 16.4823 13.832C16.316 13.7729 15.9246 13.5959 15.7877 13.7041C15.3572 14.0582 14.8973 15.0615 14.4081 15.2483C13.1949 15.0123 12.0698 14.1762 11.1893 13.3205C10.7979 12.9467 10.0739 11.8844 9.91736 11.5992C9.888 11.3041 10.4163 10.9106 10.5337 10.6844C11.1403 9.99589 10.6805 9.5631 10.6022 9.27786C10.4653 8.98278 10.2304 8.45163 10.025 8.01884C9.84888 7.7336 9.8097 7.31064 9.49662 7.15327C8.16602 6.46474 7.40292 7.84179 7.08984 8.55982C5.20155 13.1336 16.5508 21.8385 18.8598 15.8385C18.9772 15.3172 18.9283 15.1205 18.7521 14.8844C18.3999 14.6385 17.989 14.5303 17.627 14.3434Z" stroke="#8D62D7" stroke-width="1.5"/>
</svg>
